<?xml version="1.0" encoding="UTF-8"?>
<svg id="Layer_2" data-name="Layer 2" xmlns="http://www.w3.org/2000/svg" viewBox="0 0 95.93 70.85">
  <defs>
    <style>
      .cls-1 {
        fill: #181c21;
      }

      .cls-2 {
        font-family: ErasITC-Medium, 'Eras Medium ITC';
        font-size: 6px;
        font-weight: 500;
      }

      .cls-3 {
        font-family: GeistMono-SemiBold, 'Geist Mono';
        font-size: 12px;
        font-weight: 600;
      }
    </style>
  </defs>
  <g id="Layer_1-2" data-name="Layer 1">
    <g>
      <g>
        <path class="cls-1" d="M95.93,57.66s-1.47-.57-4.01-1.64c-1.26-.59-2.85-1.05-4.63-1.71-1.76-.69-3.83-1.24-6.05-1.91-.55-.16-1.12-.34-1.7-.51-.59-.14-1.18-.28-1.79-.42-1.21-.29-2.46-.59-3.75-.91-1.29-.29-2.63-.49-3.99-.74-1.36-.23-2.74-.54-4.17-.68-1.42-.18-2.87-.38-4.33-.57-1.46-.16-2.96-.23-4.45-.36-.75-.06-1.5-.12-2.25-.18-.75-.04-1.51-.04-2.27-.06-1.52-.04-3.04-.08-4.57-.12-1.53,.04-3.06,.08-4.58,.12-.77,.03-1.54,.03-2.3,.07-.75,.06-1.5,.12-2.24,.18-1.49,.13-2.97,.21-4.43,.36-1.46,.19-2.91,.38-4.33,.57-1.43,.14-2.81,.45-4.17,.68-1.36,.26-2.7,.45-3.99,.74-1.29,.31-2.54,.61-3.75,.91-.61,.14-1.2,.28-1.79,.42-.58,.17-1.14,.34-1.7,.51-2.22,.67-4.28,1.22-6.05,1.91-1.78,.66-3.38,1.13-4.62,1.71-2.53,1.06-4.01,1.64-4.01,1.64,0,0,1.35-.87,3.75-2.33,1.19-.78,2.71-1.5,4.45-2.38,.44-.22,.88-.44,1.35-.67,.23-.12,.47-.23,.7-.35,.24-.1,.49-.21,.74-.31,1.01-.41,2.06-.84,3.16-1.29,.55-.22,1.12-.45,1.69-.69,.58-.2,1.18-.4,1.78-.6,1.22-.39,2.47-.8,3.77-1.21,1.3-.39,2.65-.69,4.03-1.05,1.38-.35,2.79-.71,4.24-.93,1.45-.25,2.92-.51,4.42-.77,1.5-.22,3.04-.34,4.58-.51,.77-.08,1.55-.16,2.33-.23,.77-.06,1.54-.07,2.31-.1,1.55-.05,3.11-.1,4.67-.16,1.56,.05,3.13,.11,4.69,.16,.78,.03,1.56,.04,2.33,.1,.77,.08,1.54,.16,2.31,.23,1.53,.16,3.06,.29,4.56,.51,1.49,.26,2.97,.51,4.42,.77,1.45,.22,2.86,.58,4.24,.93,1.38,.36,2.73,.66,4.03,1.05,1.29,.42,2.55,.82,3.77,1.21,.61,.2,1.2,.4,1.78,.6,.57,.23,1.14,.46,1.69,.69,1.1,.45,2.16,.88,3.16,1.3,.25,.11,.5,.21,.74,.31,.24,.12,.47,.24,.71,.35,.46,.23,.92,.46,1.35,.68,1.74,.88,3.27,1.6,4.45,2.37,2.39,1.45,3.75,2.32,3.75,2.32Z"/>
        <path class="cls-1" d="M38.88,36.69h4.16v-4.16h-4.16v4.16Zm6.92,0h4.16v-4.16h-4.16v4.16Zm48.78,9.31l-17.8-17.53V10.49L68.21,1.92V20.02L51.21,3.28l-3.33-3.28-3.33,3.28L1.18,46,47.88,13.64l46.7,32.36ZM47.96,3.58v7L18.55,31.92,47.96,3.58Zm-9.09,26.56h4.16v-4.16h-4.16v4.16Zm6.92,0h4.16v-4.16h-4.16v4.16Zm6.92,0h4.16v-4.16h-4.16v4.16Zm0,6.55h4.16v-4.16h-4.16v4.16Z"/>
      </g>
      <text class="cls-3" transform="translate(27.86 61.94)"><tspan x="0" y="0">Homely</tspan></text>
      <text class="cls-2" transform="translate(12.31 69.35)"><tspan x="0" y="0">Find Your Dream Home Here</tspan></text>
    </g>
  </g>
</svg>