<?xml version="1.0" encoding="UTF-8" standalone="no" ?>
<!DOCTYPE svg PUBLIC "-//W3C//DTD SVG 1.1//EN" "http://www.w3.org/Graphics/SVG/1.1/DTD/svg11.dtd">
<svg xmlns="http://www.w3.org/2000/svg" xmlns:xlink="http://www.w3.org/1999/xlink" version="1.1" width="1080" height="1080" viewBox="0 0 1080 1080" xml:space="preserve">
<desc>Created with Fabric.js 5.2.4</desc>
<defs>
</defs>
<g transform="matrix(1 0 0 1 540 540)" id="0739c23a-fcb3-406a-a888-8e1ae85cb0af"  >
<rect style="stroke: none; stroke-width: 1; stroke-dasharray: none; stroke-linecap: butt; stroke-dashoffset: 0; stroke-linejoin: miter; stroke-miterlimit: 4; fill: rgb(255,255,255); fill-rule: nonzero; opacity: 1; visibility: hidden;" vector-effect="non-scaling-stroke"  x="-540" y="-540" rx="0" ry="0" width="1080" height="1080" />
</g>
<g transform="matrix(1 0 0 1 540 540)" id="91ccfee2-b541-45d4-8fee-8803a7e5764d"  >
</g>
<g transform="matrix(1 0 0 1 494.08 540)"  >
<rect style="stroke: none; stroke-width: 1; stroke-dasharray: none; stroke-linecap: butt; stroke-dashoffset: 0; stroke-linejoin: miter; stroke-miterlimit: 4; fill: rgb(235,103,83); fill-rule: nonzero; opacity: 1;" vector-effect="non-scaling-stroke"  x="-22" y="-22" rx="20" ry="20" width="44" height="44" />
</g>
<g transform="matrix(0.68 0 0 0.68 572.15 540)" style="" id="2183aa3f-dca8-46a1-ab2d-73ab356ffc36"  >
		<text xml:space="preserve" font-family="Lato" font-size="40" font-style="normal" font-weight="700" style="stroke: none; stroke-width: 1; stroke-dasharray: none; stroke-linecap: butt; stroke-dashoffset: 0; stroke-linejoin: miter; stroke-miterlimit: 4; fill: rgb(0,0,0); fill-rule: nonzero; opacity: 1; white-space: pre;" ><tspan x="-66.65" y="12.57" >Homely</tspan></text>
</g>
<g transform="matrix(1 0 0 1 494.08 540.02)" clip-path="url(#CLIPPATH_3)"  >
<clipPath id="CLIPPATH_3" >
	<rect transform="matrix(1 0 0 1 0 -0.02)" id="clip0_5_128" x="-12" y="-12" rx="0" ry="0" width="24" height="24" />
</clipPath>
<path style="stroke: none; stroke-width: 1; stroke-dasharray: none; stroke-linecap: butt; stroke-dashoffset: 0; stroke-linejoin: miter; stroke-miterlimit: 4; fill: rgb(255,255,255); fill-rule: nonzero; opacity: 1;" vector-effect="non-scaling-stroke"  transform=" translate(-22, -22.02)" d="M 32.7715 22.1168 L 31.6482 21.1411 L 31.6482 30.3498 C 31.6482 31.8994 30.3875 33.1599 28.8381 33.1599 L 25.4622 33.1599 C 25.7456 32.8695 26.0459 32.5469 26.348 32.1981 C 26.6128 31.8925 26.8596 31.5885 27.0892 31.2866 L 28.8379 31.2866 C 29.3544 31.2866 29.7747 30.8663 29.7747 30.3498 L 29.7747 19.5142 L 22 12.7625 L 14.2252 19.5142 L 14.2252 30.3498 C 14.2252 30.8663 14.6454 31.2866 15.1619 31.2866 L 16.9108 31.2866 C 17.1402 31.5883 17.387 31.8925 17.652 32.1981 C 17.9541 32.5467 18.2544 32.8695 18.5377 33.1599 L 15.1619 33.1599 C 13.6125 33.1599 12.3518 31.8994 12.3518 30.3498 L 12.3518 21.1411 L 11.2283 22.1168 L 10 20.7023 L 22 10.2812 L 34 20.7023 L 32.7715 22.1168 Z M 22 24.2099 C 21.224 24.2099 20.5948 24.8389 20.5948 25.6149 C 20.5948 26.3909 21.224 27.02 22 27.02 C 22.776 27.02 23.4052 26.3909 23.4052 25.6149 C 23.4052 24.8389 22.776 24.2099 22 24.2099 Z M 27.3849 25.899 C 27.3849 27.3862 26.5597 29.0926 24.9321 30.9713 C 23.7798 32.3013 22.6392 33.2343 22.5912 33.2733 L 22 33.7546 L 21.4086 33.2733 C 21.3606 33.2343 20.22 32.3013 19.0677 30.9713 C 17.4401 29.0926 16.6149 27.3862 16.6149 25.899 L 16.6149 25.6185 C 16.6149 22.6491 19.0306 20.2334 22 20.2334 C 24.9692 20.2334 27.3849 22.6491 27.3849 25.6185 L 27.3849 25.899 Z M 25.5116 25.6185 C 25.5116 23.6822 23.9362 22.1068 22 22.1068 C 20.0637 22.1068 18.4884 23.6822 18.4884 25.6185 L 18.4884 25.8992 C 18.4884 26.8937 19.197 28.2595 20.4837 29.7446 C 21.0416 30.3886 21.6006 30.9333 22.0026 31.3032 C 23.3434 30.0737 25.5114 27.7052 25.5114 25.8992 L 25.5114 25.6185 L 25.5116 25.6185 Z" stroke-linecap="round" />
</g>
</svg>